<?xml version="1.0" encoding="utf-8"?>
<!-- Generator: Adobe Illustrator 19.2.1, SVG Export Plug-In . SVG Version: 6.00 Build 0)  -->
<svg version="1.1" id="Layer_1" xmlns="http://www.w3.org/2000/svg" xmlns:xlink="http://www.w3.org/1999/xlink" x="0px" y="0px"
	 viewBox="0 0 1080 300" style="enable-background:new 0 0 1080 300;" xml:space="preserve">
<style type="text/css">
	.st0{fill:#1F4F7B;}
	.st1{font-family:'Oswald-DemiBold';}
	.st2{font-size:196.8864px;}
</style>
<g>
	<path class="st0" d="M282.4-60c2.8-8.7,6.6-16.8,14.3-22.6c14.4-10.8,33.1-10.4,47.1,1.4c12.9,10.9,16.4,29.9,8.4,45.2
		c-3.6,6.8-3.5,6.7,2.4,11.7c23.9,19.9,47.9,39.8,71.7,59.8c2.9,2.5,4.3,2.6,6.1-1.1c23.7-47.6,47.5-95.2,71.3-142.7
		c1.4-2.8,1.5-4.4-1.5-6.5c-14.1-9.7-19.7-25.8-15-42c4.4-14.8,18.6-25.6,34.8-26.2c14.9-0.6,30.8,10.2,35.6,24.5
		c5.6,16.3,0.4,33.6-13.7,43.2c-3.7,2.5-3.6,4.4-1.8,7.9c23.6,47,47.1,94,70.6,141c2.6,5.2,2.6,5.1,7.1,1.3
		c24.6-20.5,49.2-41.1,73.9-61.5c2.9-2.4,2.8-3.9,1-6.9c-13.1-22.1-2.8-48.3,21.7-55.6c18.1-5.4,38.5,5.4,44.8,23.8
		c0.6,1.8,1.2,3.5,1.9,5.3c0,4.7,0,9.4,0,14.1c-0.7,1.7-1.4,3.5-2,5.3c-4.7,14.5-21.6,26.3-36.3,24.6c-5-0.6-6.4,0.7-7.4,5.4
		c-9.3,45.5-18.9,90.9-28.3,136.4c-0.9,4.5-2.6,6.3-7.4,6.2c-18.3-0.3-36.6-0.1-54.9-0.1c-87,0-174,0-260.9,0c-8.3,0-8.3,0-10-7.9
		c-2.7-12.9-5.4-25.7-8.1-38.6c-6.7-32.3-13.5-64.6-20.2-96.9c-0.5-2.6-0.7-5.2-4.8-4.7c-12.2,1.5-22.3-3-30.8-11.6
		c-5.1-5.1-7.2-11.6-9.7-18C282.4-50.6,282.4-55.3,282.4-60z"/>
	<path class="st0" d="M523.1,168.2c52.4,0,104.8,0,157.2,0c9.6,0,9.6,0,9.6,9.8c-0.1,6.9,0.2,13.7-0.6,20.6
		c-1.7,14.7-12.4,25.1-27.4,25.9c-1.2,0.1-2.5,0.1-3.8,0.1c-90.3,0-180.5,0-270.8,0c-13,0-23.1-4.9-28.9-17
		c-2.4-5-2.5-10.6-2.7-16.1c-0.2-5.6-0.1-11.3,0-16.9c0-6,0.4-6.4,6.4-6.4c27.2,0,54.4,0,81.6,0
		C470.2,168.2,496.7,168.2,523.1,168.2z"/>
</g>
<text transform="matrix(1 0 0 1 363.624 415.0254)" class="st0 st1 st2">YOU</text>
</svg>
